<svg xmlns="http://www.w3.org/2000/svg" width="1024" height="1024" viewBox="0 0 48 48"><path fill="#000" d="M17.3,10V8.2C17.3,4 19.8,2 24,2C28.2,2 30.7,4 30.7,8.2V10H28.1V8.2C28.1,5.8 26.6,4.6 24,4.6C21.4,4.6 19.9,5.8 19.9,8.2V10Z"/><path fill="#000" fill-rule="evenodd" d="M24,8.2C15.1,8.2 9.6,11.2 8,18.8C6.3,26.3 4.9,33.6 5,37.8C5.1,42.6 8.6,45.5 14,45.5H34C39.4,45.5 42.9,42.6 43,37.8C43.1,33.6 41.7,26.3 40,18.8C38.4,11.2 32.9,8.2 24,8.2ZM16.1,33.5C15.4,32.8 15.4,31.7 16.1,31C16.8,30.3 17.9,30.3 18.6,31L21.8,34.2L29.5,26.9C30.2,26.2 31.3,26.3 32,27C32.7,27.7 32.6,28.8 31.9,29.5L23,38C22.3,38.7 21.2,38.7 20.5,38Z"/></svg>
